# xmcd
#
# Track frame offsets:
#	150
#	9632
#	20007
#	29772
#	38845
#	49915
#	58155
#	70822
#	82825
#	97702
#	111900
#	124740
#	135245
#	146735
#	156550
#	166902
#	178560
#	190892
#	201920
#	210577
#
# Disc length: 2932 seconds
#
# Revision: 1
# Processed by: cddbd v1.5.1PL0 Copyright (c) Steve Scherf et al.
# Submitted via: CDex 1.50Beta5
#
DISCID=1a0b7214
DTITLE=Elvis Presley - Elvis Presley Forever
DYEAR=1994
DGENRE=Pop
TTITLE0=ミーン・ウーマン・ブルース
TTITLE1=ブルー・ベリー・ヒル
TTITLE2=ザッツ・オール・ライト
TTITLE3=悲しき悪魔
TTITLE4=胸に来ちゃった
TTITLE5=ラヴィング・ユー・ベイビー
TTITLE6=破れたハートを売り物に
TTITLE7=ブルー・スエード・シューズ
TTITLE8=リトル・シアター
TTITLE9=ロカ・ブラ・ベイビー
TTITLE10=ラヴィング・ユー
TTITLE11=ラブ・レター
TTITLE12=Ｇ・Ｉ・ブルース
TTITLE13=アイ・フィール・ソー・バット
TTITLE14=青い涙
TTITLE15=ボサ・ノヴァ・ベビー
TTITLE16=ブルー・ハワイ
TTITLE17=ハワイアン・ウェディング・ソング
TTITLE18=アイ・ニード・ユア・ラブ・トゥナイト
TTITLE19=のっぽのサリー
EXTD=
EXTT0=
EXTT1=
EXTT2=
EXTT3=
EXTT4=
EXTT5=
EXTT6=
EXTT7=
EXTT8=
EXTT9=
EXTT10=
EXTT11=
EXTT12=
EXTT13=
EXTT14=
EXTT15=
EXTT16=
EXTT17=
EXTT18=
EXTT19=
PLAYORDER=
